<?xml version="1.0" encoding="utf-8"?>
<!-- Generator: Adobe Illustrator 24.1.2, SVG Export Plug-In . SVG Version: 6.00 Build 0)  -->
<svg version="1.1" id="Слой_1" xmlns="http://www.w3.org/2000/svg" xmlns:xlink="http://www.w3.org/1999/xlink" x="0px" y="0px"
	 viewBox="0 0 36 36" style="enable-background:new 0 0 36 36;" xml:space="preserve">
<style type="text/css">
	.st0{fill:none;}
	.st1{fill:#388E3C;}
</style>
<path class="st0" d="M0,0h36v36H0V0z"/>
<path class="st1" d="M3,18.8c0-4.6,3.7-8.3,8.3-8.3H27c3.3,0,6,2.7,6,6s-2.7,6-6,6H14.3c-2.1,0-3.8-1.7-3.8-3.8s1.7-3.8,3.8-3.8
	h11.3v3H14.1c-0.8,0-0.8,1.5,0,1.5H27c1.7,0,3-1.3,3-3s-1.3-3-3-3H11.3c-2.9,0-5.3,2.4-5.3,5.3S8.4,24,11.3,24h14.3v3H11.3
	C6.7,27,3,23.3,3,18.8z"/>
</svg>
